<?xml version="1.0" standalone="no"?>
<!DOCTYPE svg PUBLIC "-//W3C//DTD SVG 20010904//EN"
 "http://www.w3.org/TR/2001/REC-SVG-20010904/DTD/svg10.dtd">
<svg version="1.0" xmlns="http://www.w3.org/2000/svg"
 width="572.000000pt" height="304.000000pt" viewBox="0 0 572.000000 304.000000"
 preserveAspectRatio="xMidYMid meet">

<g transform="translate(0.000000,304.000000) scale(0.100000,-0.100000)"
fill="#000000" stroke="none">
<path d="M270 2764 c-36 -33 -40 -41 -40 -85 0 -46 2 -50 44 -78 28 -20 64
-34 98 -39 l53 -7 7 -65 c7 -60 6 -66 -20 -98 -54 -68 -56 -73 -45 -90 6 -10
28 -19 54 -22 l44 -5 0 -53 c0 -34 5 -56 14 -62 11 -6 4 -23 -36 -77 -28 -37
-55 -78 -62 -90 -31 -60 6 -142 51 -114 34 21 31 6 -9 -55 -40 -60 -45 -95
-28 -185 4 -23 3 -39 -4 -43 -15 -9 -14 -49 1 -64 7 -7 20 -12 31 -12 10 0 45
-29 78 -64 33 -35 74 -70 92 -77 18 -7 122 -99 232 -204 211 -201 295 -275
385 -341 30 -22 71 -52 90 -66 56 -40 364 -217 480 -274 146 -73 234 -110 369
-155 197 -67 243 -79 336 -89 50 -5 135 -16 190 -25 157 -23 273 -20 630 20
33 4 78 15 100 25 22 10 58 22 80 25 43 8 169 48 277 89 74 28 521 254 633
320 39 22 97 62 130 89 33 27 92 69 130 94 39 25 95 69 125 98 30 28 69 63 86
76 53 41 156 129 208 178 36 33 51 55 56 81 4 28 10 36 30 38 64 8 135 44 158
78 12 20 22 41 22 49 0 30 16 48 79 90 102 67 114 81 107 123 -7 45 -61 102
-96 102 -16 0 -37 -12 -56 -31 -16 -17 -59 -50 -95 -74 -55 -36 -73 -43 -105
-40 -48 4 -84 -17 -84 -49 0 -13 -7 -29 -15 -36 -8 -7 -15 -18 -15 -25 0 -6
-9 -20 -20 -30 -18 -17 -39 -16 -83 1 -8 3 -24 -4 -35 -16 -23 -25 -181 -120
-199 -120 -22 0 -23 17 -3 75 26 76 26 139 0 165 -24 24 -32 25 -69 5 -31 -15
-54 -63 -66 -133 -4 -23 -17 -55 -29 -70 -33 -40 -37 -59 -21 -99 8 -19 15
-37 15 -40 0 -10 -135 -64 -194 -78 -34 -8 -79 -22 -99 -30 -59 -25 -147 -46
-227 -55 -41 -4 -111 -14 -155 -20 -97 -15 -399 -5 -495 15 -118 25 -290 74
-348 99 -31 14 -68 28 -82 32 -14 3 -72 25 -130 47 -281 110 -604 416 -940
893 -36 51 -99 137 -140 191 -42 54 -79 103 -83 110 -4 7 3 34 17 61 28 56 71
82 133 82 21 0 54 4 73 9 19 5 47 12 62 15 33 7 98 62 98 82 0 8 -9 23 -20 34
-18 18 -30 20 -103 15 -45 -2 -105 -9 -134 -14 -35 -7 -60 -7 -80 1 -24 9 -37
7 -83 -15 -37 -17 -65 -23 -86 -20 -25 4 -39 -2 -67 -26 l-36 -32 -38 21 c-48
25 -93 26 -143 0 l-39 -20 -30 30 c-16 17 -40 30 -53 30 -26 0 -92 -32 -123
-60 -14 -13 -44 -20 -101 -25 l-82 -7 -12 36 c-6 20 -22 44 -35 52 -23 15 -26
13 -88 -39 -56 -47 -72 -55 -120 -61 -64 -8 -77 -4 -77 27 -1 40 -37 105 -69
121 -16 9 -48 16 -70 16 -33 0 -49 -7 -81 -36z m133 -22 c19 -17 22 -32 7 -32
-5 0 -19 -9 -30 -20 -11 -11 -33 -20 -50 -20 -21 0 -30 -5 -30 -16 0 -14 -3
-14 -15 -4 -42 35 25 129 80 113 11 -3 28 -12 38 -21z m1575 -4 c3 -15 -3 -17
-50 -12 -68 7 -81 11 -73 24 4 6 31 10 63 8 44 -2 58 -7 60 -20z m-364 -47
c-5 -24 -1 -32 20 -46 31 -21 32 -34 6 -68 -11 -14 -20 -30 -20 -37 0 -17 -64
-93 -160 -190 -47 -47 -89 -94 -95 -104 -11 -21 -25 -29 -70 -43 -16 -4 -30
-15 -30 -23 0 -8 -21 -26 -47 -39 -27 -13 -48 -29 -48 -36 0 -8 -9 -17 -20
-20 -11 -3 -20 -13 -20 -20 0 -8 -9 -19 -20 -25 -10 -6 -17 -16 -14 -24 6 -16
-19 -60 -69 -118 -21 -24 -52 -63 -70 -88 -18 -25 -42 -47 -52 -49 -15 -3 -17
0 -8 10 6 8 8 29 6 48 -6 36 -23 24 -23 -16 0 -17 -13 -29 -50 -48 -53 -27
-63 -48 -30 -65 31 -16 25 -27 -30 -55 -56 -28 -90 -32 -90 -10 0 10 -10 15
-30 15 -39 0 -48 22 -21 56 47 60 8 60 -55 0 -40 -39 -46 -49 -39 -73 3 -15
28 -49 55 -76 29 -29 47 -54 43 -63 -8 -20 -20 -17 -38 9 -8 13 -27 29 -41 36
-43 19 -94 65 -94 84 0 10 26 46 58 80 32 34 70 79 86 100 29 40 53 45 48 9
-2 -14 2 -22 12 -22 8 0 16 -5 18 -11 3 -8 27 -6 83 8 77 19 79 20 92 58 12
36 71 110 80 101 2 -2 -6 -20 -18 -40 -11 -20 -18 -36 -15 -36 3 0 12 13 20
29 21 40 63 66 82 50 11 -9 17 -9 29 1 24 20 17 38 -17 45 -18 3 -45 11 -60
17 -22 8 -33 7 -54 -7 -24 -15 -24 -18 -8 -29 16 -12 14 -17 -20 -69 -21 -32
-42 -57 -47 -57 -5 0 -9 15 -9 33 l0 32 -18 -35 c-12 -26 -18 -30 -20 -17 -2
10 2 25 9 33 6 8 9 18 5 22 -4 4 -13 -1 -20 -11 -16 -21 -79 -24 -74 -3 3 12
70 83 241 252 20 21 37 44 37 52 0 16 196 219 318 328 65 58 89 74 113 74 26
0 30 -3 24 -17 -21 -51 -16 -108 7 -85 8 8 8 15 0 24 -13 16 -5 31 26 47 25
14 30 41 6 41 -25 0 -9 50 27 83 23 21 39 27 74 27 44 0 44 0 39 -29z m-924
-65 c0 -18 -47 -56 -68 -56 -11 0 -5 11 18 35 37 38 50 43 50 21z m-345 -24
c-3 -3 -11 0 -18 7 -9 10 -8 11 6 5 10 -3 15 -9 12 -12z m548 -46 c24 -18 21
-26 -8 -26 -14 0 -25 -4 -25 -9 0 -5 11 -16 25 -25 30 -20 32 -37 5 -61 -18
-16 -22 -16 -66 -1 -26 9 -55 16 -64 16 -9 0 -29 13 -44 29 -25 26 -26 29 -11
45 10 9 25 14 36 11 10 -3 27 -7 37 -10 11 -3 34 5 53 19 41 29 39 29 62 12z
m166 -17 c-13 -25 -7 -32 46 -47 48 -14 72 -28 63 -38 -4 -4 -30 3 -57 15 -54
23 -91 27 -91 10 0 -5 21 -19 46 -30 56 -25 62 -40 34 -79 -25 -35 -38 -37
-90 -10 -45 23 -100 27 -100 7 0 -8 18 -22 40 -32 46 -21 66 -40 51 -49 -5 -4
-26 5 -47 19 -58 39 -75 34 -164 -51 -95 -91 -107 -81 -17 13 34 36 71 76 82
87 11 12 43 46 71 76 55 60 131 130 139 130 3 0 1 -9 -6 -21z m-262 -155 c-2
-3 -16 0 -30 5 -29 11 -53 -4 -120 -76 -59 -64 -57 -43 2 30 66 81 86 91 124
65 16 -11 26 -22 24 -24z m907 -23 c61 -81 82 -122 112 -224 29 -95 39 -109
25 -31 -11 56 -6 68 16 39 8 -11 34 -47 59 -80 24 -33 47 -71 50 -85 4 -14 22
-54 40 -90 18 -36 48 -98 66 -139 31 -71 51 -84 29 -18 l-11 32 20 -24 c11
-13 20 -29 20 -37 0 -16 82 -186 87 -180 2 2 -5 27 -17 55 -23 60 -23 61 -10
61 6 0 10 -6 10 -13 0 -17 70 -160 76 -155 4 4 -39 108 -65 158 -14 27 -23 80
-13 80 15 0 40 -33 47 -63 5 -17 13 -26 20 -23 13 5 50 -31 78 -75 9 -15 24
-26 33 -25 10 0 28 -15 42 -34 13 -19 30 -34 37 -32 17 3 107 -125 103 -147
-2 -11 -17 2 -46 40 -32 43 -48 56 -62 52 -19 -5 -19 -6 0 -34 11 -15 45 -42
75 -59 37 -21 55 -38 55 -51 0 -10 2 -19 4 -19 2 0 13 -3 23 -7 16 -6 16 -5 4
10 -22 28 -7 48 31 40 22 -4 48 -23 79 -57 54 -59 75 -56 35 5 -35 52 -24 65
15 19 18 -22 29 -29 29 -20 0 23 68 14 83 -11 7 -12 19 -16 32 -13 13 3 27 -2
39 -14 10 -12 25 -18 36 -15 12 3 24 -4 35 -21 16 -24 19 -25 29 -10 11 15 14
15 29 -1 9 -9 17 -20 17 -25 0 -4 28 -11 63 -15 63 -7 99 -20 95 -33 -5 -15
50 -62 65 -56 8 3 37 -1 63 -9 32 -9 85 -13 149 -11 134 3 167 8 253 37 70 24
104 23 40 -1 -17 -6 -29 -14 -26 -18 4 -3 16 0 28 6 12 7 34 10 48 7 14 -3 37
-1 50 4 20 8 25 6 29 -12 5 -18 11 -20 42 -14 80 14 141 36 151 55 10 18 70
57 70 45 0 -3 -5 -14 -12 -25 -23 -36 -20 -36 182 24 47 14 91 26 99 26 24 0
-9 -29 -63 -57 -43 -22 -48 -27 -31 -33 19 -7 19 -7 0 -17 -40 -22 -98 -33
-111 -22 -16 13 -54 2 -54 -16 0 -10 -16 -13 -59 -12 -48 1 -66 -3 -90 -21
-17 -12 -43 -22 -58 -22 -15 0 -59 -10 -98 -21 -75 -23 -115 -57 -115 -97 0
-32 -17 -62 -35 -62 -20 0 -19 19 4 57 18 29 18 43 0 43 -4 0 -15 -25 -24 -55
-8 -31 -28 -70 -44 -87 l-28 -31 -6 25 c-7 27 -45 44 -61 28 -18 -18 -28 -11
-24 15 3 14 4 25 3 25 -2 0 -15 -20 -29 -44 -30 -51 -56 -67 -56 -34 0 17 -3
19 -12 10 -7 -7 -20 -12 -30 -12 -15 0 -17 3 -8 19 5 11 10 28 10 38 -1 16 -3
15 -19 -4 -11 -13 -23 -23 -27 -23 -4 0 -4 4 2 10 12 12 6 90 -7 90 -5 0 -9
-6 -9 -14 0 -32 -172 -111 -217 -100 -11 3 -24 1 -27 -5 -9 -14 -26 -14 -26
-1 0 6 6 10 14 10 7 0 19 7 26 15 7 9 20 13 30 10 28 -9 102 24 132 58 15 17
27 35 28 38 0 8 -92 21 -142 19 -20 0 -57 7 -82 15 -63 22 -210 12 -313 -20
-16 -5 -25 -3 -29 8 -6 17 -40 12 -64 -9 -16 -13 -159 -34 -238 -34 -31 0 -42
4 -40 13 5 13 128 30 198 27 31 -2 89 25 94 43 2 11 1 30 -4 43 -8 20 -14 23
-35 18 -17 -4 -27 -2 -30 9 -4 9 -33 19 -81 27 -68 12 -76 11 -87 -5 -8 -10
-32 -19 -60 -22 -43 -5 -47 -4 -47 16 0 13 -7 21 -17 22 -14 0 -13 3 5 11 13
7 22 20 22 35 0 14 6 23 15 23 19 0 20 24 1 39 -7 6 -37 19 -67 30 -30 10 -80
30 -112 45 l-58 26 -8 -22 c-7 -20 -4 -25 23 -36 l31 -12 -38 5 c-60 9 -129
-4 -125 -24 2 -9 13 -17 26 -19 12 -2 20 -7 17 -12 -3 -5 -16 -5 -31 0 -38 15
-44 12 -44 -15 0 -16 -6 -25 -15 -25 -21 0 -125 60 -125 71 0 6 -12 21 -26 34
-24 22 -36 25 -105 25 -61 0 -79 3 -79 14 0 9 18 16 53 20 61 8 111 40 87 56
-8 5 -23 10 -34 10 -12 0 -16 5 -12 15 4 10 -3 16 -22 20 -15 3 -45 12 -67 19
-22 7 -46 11 -52 9 -18 -6 -16 -42 2 -49 20 -8 9 -24 -16 -24 -14 0 -19 -7
-19 -25 0 -48 -26 -24 -68 63 -35 71 -42 80 -38 51 4 -32 2 -36 -15 -32 -24 7
-24 2 2 -48 12 -25 25 -39 33 -36 8 3 19 0 25 -6 15 -15 14 -57 -1 -58 -7 -1
-20 -3 -28 -4 -8 -1 -25 -3 -37 -4 -14 0 -20 -6 -17 -14 3 -8 -6 -18 -21 -25
-39 -18 -50 -14 -30 8 18 20 18 21 -3 27 -12 3 -22 9 -22 14 0 5 -1 12 -1 17
-1 4 28 5 64 4 39 -2 67 1 71 7 5 7 -4 11 -22 11 -32 0 -42 14 -42 56 0 14 -7
27 -15 30 -11 5 -12 11 -4 25 11 21 12 21 -56 38 -48 13 -125 14 -143 2 -7 -4
-12 -14 -10 -22 2 -8 -7 -15 -19 -17 -25 -4 -33 23 -10 31 6 2 -8 8 -32 13
-51 11 -64 30 -27 40 29 7 29 7 16 53 -7 25 -6 39 3 49 6 8 12 22 12 31 0 11
11 17 35 19 50 5 60 19 30 42 -19 15 -21 20 -8 20 13 0 15 6 9 27 -6 21 -16
30 -45 36 -21 5 -40 16 -43 23 -3 9 -13 12 -29 8 -29 -7 -34 19 -6 35 16 10
16 10 -1 11 -16 0 -16 2 -2 24 9 13 30 30 48 37 56 22 78 48 71 85 -5 27 -2
34 28 55 18 13 35 27 36 31 2 5 11 15 20 24 12 12 13 18 3 24 -10 5 -10 9 -2
15 9 5 9 10 1 20 -15 18 11 32 92 48 81 17 89 37 14 37 -51 0 -75 14 -43 25
65 23 69 26 59 38 -18 21 49 87 87 87 27 0 31 4 31 28 1 26 20 62 34 62 4 0
11 -10 16 -22 9 -23 9 -23 9 3 2 54 14 49 75 -30z m-1045 -241 c-29 -36 -49
-50 -49 -34 0 6 71 74 77 74 2 0 -11 -18 -28 -40z m-127 -147 c-23 -32 -70
-76 -57 -53 17 31 68 91 72 86 3 -3 -4 -17 -15 -33z m714 2 c-27 -21 -53 -20
-36 0 7 8 22 15 34 15 21 -1 21 -1 2 -15z m840 -153 c4 -18 4 -35 1 -38 -8 -8
-55 76 -62 111 l-6 30 30 -35 c17 -19 34 -49 37 -68z m-966 38 c0 -5 -4 -10
-10 -10 -5 0 -10 5 -10 10 0 6 5 10 10 10 6 0 10 -4 10 -10z m1034 -89 c12
-13 16 -32 14 -58 l-3 -38 -17 26 c-21 30 -35 89 -21 89 6 0 18 -9 27 -19z
m3256 -66 c0 -2 -28 -24 -61 -47 -118 -83 -129 -89 -129 -68 0 6 10 14 23 19
12 5 48 30 81 55 51 40 86 57 86 41z m-4275 -16 c-11 -16 -111 -59 -140 -59
-36 0 -24 14 27 32 123 43 122 43 113 27z m-5 -53 c0 -15 -86 -53 -96 -43 -12
12 6 37 25 37 11 0 23 5 26 10 9 15 45 12 45 -4z m3570 -57 c0 -5 -4 -9 -10
-9 -5 0 -10 7 -10 16 0 8 5 12 10 9 6 -3 10 -10 10 -16z m-4000 -23 c0 -15
-18 -31 -26 -23 -7 7 7 37 17 37 5 0 9 -6 9 -14z m4465 4 c3 -5 2 -10 -4 -10
-5 0 -13 5 -16 10 -3 6 -2 10 4 10 5 0 13 -4 16 -10z m-4207 -31 c-3 -38 -16
-44 -53 -25 l-28 15 34 20 c45 28 50 27 47 -10z m82 1 c0 -5 -10 -10 -22 -10
-19 0 -20 2 -8 10 19 13 30 13 30 0z m-20 -59 c0 -14 -18 -23 -30 -16 -6 4 -8
11 -5 16 8 12 35 12 35 0z m3970 -37 c0 -8 -4 -12 -10 -9 -5 3 -10 10 -10 16
0 5 5 9 10 9 6 0 10 -7 10 -16z m-400 -29 c0 -8 -7 -15 -15 -15 -16 0 -20 12
-8 23 11 12 23 8 23 -8z m330 -20 c0 -13 -31 -34 -259 -170 -86 -51 -121 -62
-121 -36 0 18 38 46 127 96 237 132 253 139 253 110z m-3845 -4 c8 -14 -28
-31 -64 -31 -41 0 -40 17 2 29 43 12 55 13 62 2z m1504 -18 c12 -14 19 -28 16
-31 -6 -6 -55 38 -55 50 0 16 19 7 39 -19z m-1200 -24 c32 -11 42 -29 16 -29
-8 0 -15 -4 -15 -10 0 -5 5 -10 11 -10 20 0 3 -24 -22 -31 -21 -6 -20 -7 9 -8
26 -1 33 -5 30 -18 -2 -13 -13 -18 -38 -19 -19 0 -47 -4 -62 -8 -26 -8 -26 -7
-19 21 5 20 3 31 -7 39 -19 14 -7 34 21 34 22 1 22 1 2 12 -28 15 -28 15 -20
27 8 14 53 14 94 0z m-273 -30 c10 -17 -11 -26 -51 -21 -39 5 -46 18 -12 25
41 8 56 7 63 -4z m-9 -65 c-3 -3 -12 -4 -19 -1 -8 3 -5 6 6 6 11 1 17 -2 13
-5z m-145 -20 c21 -11 27 -19 20 -26 -12 -12 -62 14 -62 32 0 13 6 13 42 -6z
m693 -44 c3 -5 1 -10 -4 -10 -6 0 -11 5 -11 10 0 6 2 10 4 10 3 0 8 -4 11 -10z
m-86 -34 c6 -7 40 -17 74 -20 76 -9 101 -20 63 -30 -22 -5 -26 -12 -24 -34 3
-26 1 -27 -36 -25 -47 3 -54 8 -39 32 16 25 8 31 -42 31 -48 0 -60 7 -44 27 9
9 8 13 0 13 -6 0 -11 5 -11 10 0 15 46 12 59 -4z m-491 -20 c20 -13 43 -31 51
-40 7 -9 19 -16 26 -16 7 0 18 -7 25 -15 7 -8 20 -15 30 -15 9 0 22 -11 28
-25 10 -22 9 -25 -6 -25 -18 0 -201 138 -202 153 0 11 8 9 48 -17z m778 -3
c56 -31 66 -41 58 -65 -5 -19 25 -33 54 -24 9 3 33 -4 52 -14 19 -11 43 -22
53 -26 9 -3 17 -13 17 -20 0 -14 -57 -21 -145 -16 -22 1 -72 -5 -112 -13 -91
-19 -92 -19 -86 4 4 15 0 18 -19 14 -13 -2 -36 1 -52 7 -25 9 -27 13 -15 24
15 15 155 56 188 56 10 0 22 7 25 16 8 20 11 17 -40 33 -46 15 -78 51 -45 51
10 0 40 -12 67 -27z m-476 13 c0 -2 -7 -6 -15 -10 -8 -3 -15 -1 -15 4 0 6 7
10 15 10 8 0 15 -2 15 -4z m928 -25 c30 -25 28 -31 -11 -31 -42 0 -49 7 -34
31 15 24 19 24 45 0z m-1245 -37 c54 -28 281 -181 301 -203 40 -44 -14 -17
-148 74 -53 36 -111 71 -129 79 -35 15 -88 66 -68 66 6 0 26 -7 44 -16z m417
6 c0 -13 -41 -30 -54 -22 -11 6 22 32 41 32 7 0 13 -5 13 -10z m1928 -19 c3
-8 -1 -12 -9 -9 -7 2 -15 10 -17 17 -3 8 1 12 9 9 7 -2 15 -10 17 -17z m-1268
-1 c0 -5 -7 -10 -16 -10 -8 0 -12 5 -9 10 3 6 10 10 16 10 5 0 9 -4 9 -10z
m160 -10 c0 -5 -16 -10 -36 -10 -21 0 -33 4 -29 10 3 6 19 10 36 10 16 0 29
-4 29 -10z m1227 -6 c-3 -3 -12 -4 -19 -1 -8 3 -5 6 6 6 11 1 17 -2 13 -5z
m-1187 -64 c0 -5 -7 -10 -16 -10 -8 0 -12 5 -9 10 3 6 10 10 16 10 5 0 9 -4 9
-10z m2040 -45 c-12 -43 -30 -61 -30 -30 0 23 29 89 37 82 3 -4 0 -27 -7 -52z
m-2173 -15 l-42 -39 58 -1 c65 0 69 -15 7 -25 -70 -12 -55 -25 29 -25 83 0
102 -10 54 -28 -24 -9 -18 -11 39 -11 68 -1 88 -11 69 -35 -15 -18 9 -28 49
-19 28 5 42 -8 21 -21 -16 -10 -111 6 -111 19 0 9 -19 13 -67 12 -124 -3 -233
3 -233 12 0 4 19 13 43 18 l42 11 -50 2 c-27 1 -61 5 -75 9 l-25 7 22 12 c12
7 38 12 57 12 20 0 36 4 36 9 0 5 -20 7 -45 6 -60 -4 -68 12 -10 20 46 7 53
25 9 25 -55 0 -10 33 63 46 21 3 45 10 53 15 8 5 23 9 32 9 12 0 4 -12 -25
-40z m2112 -2 c-7 -13 -14 -18 -16 -11 -3 7 1 22 8 35 7 13 14 18 16 11 3 -7
-1 -22 -8 -35z m-2989 22 c0 -5 -4 -10 -10 -10 -5 0 -10 5 -10 10 0 6 5 10 10
10 6 0 10 -4 10 -10z m2893 -32 c-6 -37 -23 -62 -23 -35 0 16 20 67 26 67 2 0
1 -15 -3 -32z m417 22 c0 -12 -28 -25 -36 -17 -9 9 6 27 22 27 8 0 14 -5 14
-10z m-517 -6 c3 -3 2 -16 -3 -27 -5 -12 -11 -34 -14 -49 -4 -16 -13 -28 -22
-28 -10 0 -14 6 -11 14 3 8 11 33 17 55 10 39 19 48 33 35z m-113 -53 c-10
-20 -9 -21 14 -15 22 5 26 3 26 -14 0 -57 -49 -100 -51 -44 0 24 -2 23 -20
-16 -19 -44 -39 -49 -39 -9 0 12 9 39 20 60 11 20 20 43 20 51 0 17 21 27 33
16 5 -4 4 -17 -3 -29z m265 17 c-11 -36 -25 -45 -25 -17 0 27 7 39 22 39 5 0
6 -10 3 -22z m-2515 -12 c0 -2 -7 -6 -15 -10 -8 -3 -15 -1 -15 4 0 6 7 10 15
10 8 0 15 -2 15 -4z m2800 1 c0 -8 -163 -129 -225 -167 -237 -145 -827 -402
-887 -387 -12 3 -39 -3 -60 -14 -28 -14 -54 -19 -91 -17 -55 4 -55 3 31 25 23
6 19 8 -28 13 -30 4 -53 7 -50 8 55 17 375 80 386 75 19 -7 238 82 288 119 21
15 47 28 56 28 10 0 34 11 54 25 21 14 54 34 75 45 21 10 46 30 55 45 12 18
23 24 39 20 29 -7 158 64 174 95 14 28 50 49 93 54 16 2 40 10 52 19 22 15 38
21 38 14z m-404 -39 c-7 -36 -29 -56 -34 -32 -6 27 8 64 24 64 13 0 15 -7 10
-32z m-1186 -8 c-14 -11 -36 -23 -50 -26 -14 -4 -31 -11 -38 -17 -9 -7 -16 -7
-23 0 -7 7 10 19 53 36 76 31 91 33 58 7z m-1523 -57 c45 -30 97 -60 116 -68
18 -7 39 -20 46 -28 6 -8 53 -30 104 -48 51 -18 103 -41 117 -51 14 -10 59
-25 100 -34 41 -8 82 -22 91 -30 8 -7 30 -19 47 -25 29 -10 44 -29 23 -29 -12
0 -137 48 -171 65 -15 8 -55 19 -89 24 -38 6 -84 23 -118 43 -31 18 -85 49
-122 69 -124 67 -136 75 -198 117 -35 24 -63 47 -63 52 0 14 28 1 117 -57z
m27 47 c17 -17 -38 -11 -60 6 -18 15 -17 15 16 10 19 -4 39 -11 44 -16z m1851
0 c3 -5 -1 -10 -10 -10 -9 0 -13 5 -10 10 3 6 8 10 10 10 2 0 7 -4 10 -10z
m595 -3 c0 -7 -7 -22 -15 -33 -13 -17 -13 -16 -3 14 13 34 18 40 18 19z
m-1080 -16 c0 -12 -70 -44 -78 -36 -9 9 39 45 61 45 9 0 17 -4 17 -9z m380
-21 c0 -6 -11 -15 -24 -19 -13 -5 -26 -17 -29 -25 -5 -11 -20 -16 -52 -16 -25
0 -45 4 -45 8 0 19 27 32 66 32 25 0 47 6 54 15 14 17 30 20 30 5z m-1365 -10
l20 -9 -20 0 c-11 0 -29 4 -40 9 l-20 9 20 0 c11 0 29 -4 40 -9z m142 -6 c-3
-3 -12 -4 -19 -1 -8 3 -5 6 6 6 11 1 17 -2 13 -5z m663 -13 c0 -5 -17 -12 -37
-16 -21 -3 -49 -9 -62 -12 -17 -4 -22 -2 -19 8 7 21 118 40 118 20z m221 -15
c-17 -18 -39 -27 -78 -32 -59 -7 -72 -2 -53 21 14 17 56 20 65 5 4 -7 17 -3
33 9 39 30 61 27 33 -3z m-524 -13 c-10 -9 -198 -22 -216 -14 -10 3 5 8 34 12
73 9 189 10 182 2z m373 -3 c0 -5 -16 -10 -36 -10 -21 0 -33 4 -29 10 3 6 19
10 36 10 16 0 29 -4 29 -10z m240 -19 c0 -12 -108 -37 -117 -28 -10 11 4 20
44 27 55 11 73 11 73 1z m459 -27 c-6 -8 -21 -14 -33 -14 -21 1 -21 1 3 20 25
22 49 17 30 -6z m-919 -8 c0 -2 -9 -6 -20 -9 -11 -3 -20 -1 -20 4 0 5 9 9 20
9 11 0 20 -2 20 -4z m210 -6 c0 -6 -11 -15 -25 -20 -14 -5 -24 -15 -23 -21 2
-7 -15 -19 -37 -27 -22 -8 -69 -25 -105 -39 -58 -22 -65 -23 -76 -9 -6 9 -23
16 -38 16 -30 0 -34 15 -8 28 9 5 60 21 112 36 52 15 106 30 120 35 35 13 80
13 80 1z m320 0 c0 -5 -7 -10 -16 -10 -8 0 -12 5 -9 10 3 6 10 10 16 10 5 0 9
-4 9 -10z m-655 -25 c-32 -14 -41 -13 -30 4 3 6 18 11 33 10 l27 -1 -30 -13z
m1396 -28 c-8 -8 -11 -7 -11 4 0 20 13 34 18 19 3 -7 -1 -17 -7 -23z m-731 4
c0 -8 -41 -19 -121 -35 -20 -4 -46 10 -37 20 4 3 33 10 65 14 85 11 93 11 93
1z m340 -16 c-7 -8 -18 -15 -24 -15 -6 0 -2 7 8 15 25 19 32 19 16 0z m-170
-25 c0 -5 -9 -10 -19 -10 -11 0 -28 -3 -38 -6 -16 -5 -16 -4 1 10 22 18 56 21
56 6z m-120 -35 c-7 -8 -22 -15 -34 -15 -21 1 -21 1 -2 15 27 21 53 20 36 0z
m-210 -5 c0 -5 -12 -10 -26 -10 -14 0 -23 4 -19 10 3 6 15 10 26 10 10 0 19
-4 19 -10z m945 -1 c-16 -24 -201 -89 -255 -89 -18 1 94 56 164 81 57 21 101
25 91 8z m-1718 -95 c68 -26 90 -29 95 -13 2 7 31 2 83 -15 90 -30 115 -32
115 -12 0 17 34 31 51 21 6 -5 4 -12 -8 -20 -28 -21 -1 -40 55 -40 26 0 52 -5
59 -11 9 -9 26 -7 69 7 70 23 72 23 76 2 2 -13 13 -18 38 -18 46 0 50 -17 8
-28 -18 -5 -37 -13 -42 -18 -6 -5 -24 -9 -40 -9 -46 0 -187 29 -202 41 -7 6
-26 8 -42 4 -47 -10 -144 11 -223 48 -41 20 -100 45 -131 57 -32 12 -61 26
-64 32 -8 12 17 6 103 -28z m138 16 c3 -5 -1 -10 -9 -10 -9 0 -16 5 -16 10 0
6 4 10 9 10 6 0 13 -4 16 -10z m673 -22 c-6 -17 -36 -34 -45 -24 -4 4 1 14 11
22 24 17 39 18 34 2z m602 -3 c-43 -17 -50 -17 -50 -6 0 11 24 19 60 19 21 0
20 -1 -10 -13z m-364 -26 c10 -17 -13 -36 -27 -22 -12 12 -4 33 11 33 5 0 12
-5 16 -11z m234 2 c0 -10 -30 -24 -37 -17 -3 3 -2 9 2 15 8 13 35 15 35 2z
m-200 -67 l25 -7 -23 -8 c-13 -5 -73 -11 -135 -14 -128 -7 -129 5 -1 28 79 15
88 15 134 1z m0 -53 c-25 -15 -150 -25 -150 -13 0 10 40 16 130 20 24 1 30 -1
20 -7z m-183 -17 c-3 -3 -12 -4 -19 -1 -8 3 -5 6 6 6 11 1 17 -2 13 -5z"/>
<path d="M1307 2523 c-4 -3 -7 -21 -7 -40 0 -27 5 -35 26 -44 51 -19 99 42 62
79 -13 13 -70 17 -81 5z"/>
<path d="M1136 2307 c-17 -18 -43 -41 -58 -50 -30 -18 -82 -111 -75 -130 3 -7
8 -3 13 8 4 11 13 24 21 28 7 4 13 16 13 26 0 22 40 51 70 51 12 0 24 9 29 23
5 13 23 30 40 37 25 10 29 15 20 26 -18 22 -39 17 -73 -19z"/>
<path d="M975 2090 c-11 -4 -31 -18 -44 -31 l-25 -23 25 -7 c45 -13 57 -9 77
23 29 45 16 59 -33 38z"/>
<path d="M866 2008 c-9 -12 -16 -26 -16 -31 0 -13 29 12 41 35 14 26 -6 23
-25 -4z"/>
<path d="M1678 2253 c-26 -7 -22 -24 22 -110 44 -84 79 -127 87 -105 3 6 9 10
14 6 5 -3 9 5 9 17 0 30 -39 171 -51 183 -20 22 -20 -8 0 -70 13 -36 20 -68
17 -71 -3 -3 -8 0 -10 8 -52 146 -55 151 -88 142z"/>
<path d="M1851 2024 c0 -11 3 -14 6 -6 3 7 2 16 -1 19 -3 4 -6 -2 -5 -13z"/>
<path d="M1750 1953 c0 -14 158 -128 166 -120 3 2 -28 29 -68 59 -87 65 -98
72 -98 61z"/>
<path d="M1950 1891 c0 -5 7 -15 17 -22 15 -13 15 -12 4 9 -12 23 -21 28 -21
13z"/>
<path d="M1412 1848 c-15 -15 3 -38 29 -38 24 0 33 18 19 35 -15 18 -32 19
-48 3z"/>
<path d="M1240 1823 c0 -5 28 -20 63 -34 47 -20 62 -30 60 -45 -2 -27 14 -34
89 -34 75 0 98 14 38 24 -42 7 -65 26 -31 26 12 0 21 4 21 9 0 15 -41 20 -66
9 -19 -9 -36 -5 -94 21 -76 34 -80 35 -80 24z"/>
<path d="M2000 1816 c0 -13 45 -96 52 -96 12 0 10 7 -12 50 -18 34 -40 60 -40
46z"/>
<path d="M1890 1710 c0 -16 39 -91 67 -127 14 -19 33 -33 45 -33 12 0 33 -13
47 -29 18 -20 31 -27 42 -23 15 6 15 11 -1 61 -15 50 -40 81 -40 51 0 -24 -29
11 -32 38 -3 29 -35 43 -49 21 -5 -9 -13 -4 -26 19 -17 30 -53 45 -53 22z"/>
<path d="M1495 1684 c-11 -3 -46 -10 -78 -16 -48 -10 -56 -15 -51 -30 4 -14 0
-18 -20 -18 -39 0 -31 -15 21 -40 40 -19 53 -21 78 -11 17 6 52 14 78 17 50 7
66 19 48 37 -7 7 -30 7 -78 -2 -69 -12 -107 -8 -100 12 2 6 41 17 88 25 88 14
129 33 69 31 -19 -1 -44 -3 -55 -5z"/>
<path d="M1821 1636 c33 -57 55 -67 28 -14 -13 26 -29 48 -36 48 -8 0 -5 -12
8 -34z"/>
<path d="M2270 1571 c0 -14 38 -81 46 -81 6 0 -25 73 -37 85 -6 5 -9 4 -9 -4z"/>
<path d="M1420 1540 c-8 -6 -36 -8 -62 -4 -68 8 -82 -6 -22 -23 92 -27 120
-27 145 -2 l23 23 -24 7 c-36 10 -43 10 -60 -1z"/>
<path d="M1652 1511 c3 -10 48 -45 106 -82 18 -12 31 -24 28 -26 -6 -7 -120
61 -145 86 -24 24 -41 27 -41 8 0 -7 31 -35 70 -62 38 -28 70 -53 70 -57 0
-14 -22 -9 -55 12 -29 18 -33 19 -39 4 -9 -23 1 -34 32 -34 15 -1 54 -7 87
-15 87 -21 108 -20 100 6 -6 19 -4 20 32 14 l38 -6 -27 25 c-34 30 -34 34 -5
38 17 3 6 12 -52 41 -56 27 -78 34 -88 26 -9 -8 -24 -6 -58 10 -50 23 -58 25
-53 12z"/>
<path d="M1520 1497 c0 -28 -35 -36 -106 -25 -38 6 -76 11 -84 12 -22 2 -24
-18 -3 -22 85 -13 85 -32 1 -33 l-63 -1 45 -10 c25 -6 62 -16 83 -24 55 -21
77 -18 77 9 0 12 4 28 9 36 6 10 11 6 20 -15 7 -19 10 -21 7 -7 -8 46 30 62
84 35 17 -9 13 -2 -14 23 -42 37 -56 43 -56 22z"/>
<path d="M2335 1453 c8 -18 18 -33 20 -33 10 0 4 16 -16 40 l-20 25 16 -32z"/>
<path d="M1554 1386 c-8 -21 25 -61 39 -47 6 6 2 19 -12 36 -18 23 -22 25 -27
11z"/>
<path d="M2060 1350 c0 -5 5 -10 11 -10 5 0 7 5 4 10 -3 6 -8 10 -11 10 -2 0
-4 -4 -4 -10z"/>
<path d="M2150 1235 c7 -8 16 -15 21 -15 5 0 9 7 9 15 0 9 -9 15 -21 15 -18 0
-19 -2 -9 -15z"/>
<path d="M2637 1233 c-9 -9 12 -33 30 -33 11 0 11 4 3 20 -11 21 -22 25 -33
13z"/>
<path d="M2691 1184 c0 -11 3 -14 6 -6 3 7 2 16 -1 19 -3 4 -6 -2 -5 -13z"/>
<path d="M2820 1183 c0 -14 35 -53 48 -53 8 0 24 -8 35 -17 22 -20 18 -9 -14
38 -15 22 -69 47 -69 32z"/>
<path d="M1992 1168 c3 -7 15 -15 28 -16 21 -3 22 -2 11 12 -16 19 -44 21 -39
4z"/>
<path d="M2920 1159 c22 -42 51 -79 61 -79 6 0 -5 21 -23 46 -37 51 -56 68
-38 33z"/>
<path d="M2997 1115 c17 -45 43 -68 99 -86 79 -26 89 -25 68 7 -11 15 -23 23
-32 19 -9 -3 -27 6 -44 22 -22 21 -28 23 -28 10 0 -25 -12 -21 -43 15 -17 22
-24 26 -20 13z"/>
<path d="M3200 1010 c-9 -6 -10 -10 -3 -10 6 0 15 5 18 10 8 12 4 12 -15 0z"/>
</g>
</svg>
