<?xml version="1.0" standalone="no"?>
<!DOCTYPE svg PUBLIC "-//W3C//DTD SVG 20010904//EN"
 "http://www.w3.org/TR/2001/REC-SVG-20010904/DTD/svg10.dtd">
<svg version="1.0" xmlns="http://www.w3.org/2000/svg"
 width="225.000000pt" height="225.000000pt" viewBox="0 0 225.000000 225.000000"
 preserveAspectRatio="xMidYMid meet">

<g transform="translate(0.000000,225.000000) scale(0.100000,-0.100000)"
fill="#000000" stroke="none">
<path d="M1447 2131 c-40 -26 -76 -71 -142 -181 -161 -265 -246 -351 -404
-406 -65 -23 -117 -67 -215 -183 l-75 -88 -273 -113 c-150 -62 -285 -118 -300
-124 -16 -6 -28 -13 -28 -17 0 -9 85 -71 309 -228 l174 -122 54 11 c29 6 67 8
85 5 47 -11 108 -80 154 -175 33 -68 121 -288 158 -394 9 -26 61 -16 153 29
93 46 189 136 369 347 189 220 227 248 336 248 89 -1 128 -22 259 -142 107
-97 170 -148 183 -148 7 0 -8 41 -77 215 -30 77 -120 322 -200 545 -172 480
-210 578 -285 730 -92 185 -160 241 -235 191z m-194 -403 c-89 -231 -214 -490
-286 -597 l-35 -52 -121 91 c-66 50 -121 94 -121 97 0 3 19 30 41 60 66 84
139 146 200 167 110 38 216 120 296 228 19 27 37 48 39 48 2 0 -4 -19 -13 -42z
m-484 -599 c67 -51 121 -96 121 -102 0 -14 -44 -73 -94 -125 -29 -31 -79 -63
-167 -107 l-125 -63 -192 135 c-106 75 -191 138 -189 140 8 7 502 212 514 212
6 1 66 -40 132 -90z"/>
</g>
</svg>
